PathFileType	4	(X/Y/Z) flx_2kg_3.trc																										
DataRate	CameraRate	NumFrames	NumMarkers	Units	OrigDataRate	OrigDataStartFrame	OrigNumFrames																					
100	100	19	9	mm	100	678	774																					
Frame#	Time	gu			centelbow			EpL			centpxt8			centijc7			ij			ts			aa			ai		
		X1	Y1	Z1	X2	Y2	Z2	X3	Y3	Z3	X4	Y4	Z4	X5	Y5	Z5	X6	Y6	Z6	X7	Y7	Z7	X8	Y8	Z8	X9	Y9	Z9  
677	6.77	-74.726	-11.216	170.918	-145.106	-246.262	198.921	-125.967	-244.712	224.819	-46.816	-153.158	-8.669	-46.816	31.938	-8.669	0	0	0	-132.233	29.918	55.082	-103.727	26.629	170.846	-150.221	-81.967	61.702
678	6.78	-75.015	-10.91	170.83	-144.36	-246.27	198.779	-125.372	-244.587	224.78	-46.816	-153.158	-8.669	-46.816	31.938	-8.669	0	0	0	-132.307	29.974	55.033	-103.867	26.517	170.809	-150.266	-81.926	61.473
679	6.79	-75.437	-10.719	170.88	-144.04	-246.311	198.707	-125.17	-244.539	224.789	-46.816	-153.158	-8.669	-46.816	31.938	-8.669	0	0	0	-132.48	30.083	54.919	-104.1	26.421	170.703	-150.427	-81.832	61.147
680	6.8	-75.762	-11.213	171.05	-144.069	-246.904	198.764	-125.272	-245.095	224.895	-46.816	-153.158	-8.669	-46.816	31.938	-8.669	0	0	0	-132.676	30.145	54.756	-104.336	26.271	170.543	-150.632	-81.779	60.775
681	6.81	-75.82	-12.088	171.226	-144.046	-247.813	198.855	-125.287	-245.994	225.012	-46.816	-153.158	-8.669	-46.816	31.938	-8.669	0	0	0	-132.765	30.047	54.62	-104.455	25.974	170.408	-150.758	-81.881	60.45
682	6.82	-75.67	-12.669	171.279	-143.743	-248.449	198.806	-125.005	-246.621	224.978	-46.816	-153.158	-8.669	-46.816	31.938	-8.669	0	0	0	-132.725	29.888	54.508	-104.442	25.634	170.296	-150.762	-82.042	60.171
683	6.83	-75.498	-12.803	171.193	-143.293	-248.68	198.583	-124.567	-246.842	224.763	-46.816	-153.158	-8.669	-46.816	31.938	-8.669	0	0	0	-132.63	29.884	54.378	-104.368	25.477	170.165	-150.685	-82.05	59.893
684	6.84	-75.486	-12.773	171.006	-142.959	-248.76	198.245	-124.239	-246.911	224.429	-46.816	-153.158	-8.669	-46.816	31.938	-8.669	0	0	0	-132.592	30.028	54.275	-104.347	25.488	170.061	-150.639	-81.914	59.658
685	6.85	-75.686	-12.803	170.728	-142.849	-248.893	197.838	-124.129	-247.035	224.02	-46.816	-153.158	-8.669	-46.816	31.938	-8.669	0	0	0	-132.707	30.129	54.276	-104.482	25.469	170.062	-150.747	-81.82	59.536
686	6.86	-76.008	-12.917	170.355	-142.872	-249.102	197.375	-124.151	-247.232	223.556	-46.816	-153.158	-8.669	-46.816	31.938	-8.669	0	0	0	-132.922	30.15	54.344	-104.719	25.369	170.13	-150.973	-81.802	59.487
687	6.87	-76.379	-13.004	169.908	-142.901	-249.293	196.862	-124.182	-247.404	223.043	-46.816	-153.158	-8.669	-46.816	31.938	-8.669	0	0	0	-133.102	30.16	54.375	-104.91	25.251	170.159	-151.18	-81.794	59.4
688	6.88	-76.729	-13.058	169.51	-142.843	-249.47	196.39	-124.134	-247.554	222.576	-46.816	-153.158	-8.669	-46.816	31.938	-8.669	0	0	0	-133.196	30.101	54.354	-105.009	25.063	170.133	-151.316	-81.851	59.262
689	6.89	-76.905	-13.222	169.339	-142.604	-249.763	196.109	-123.917	-247.819	222.309	-46.816	-153.158	-8.669	-46.816	31.938	-8.669	0	0	0	-133.219	29.944	54.342	-105.032	24.782	170.116	-151.382	-82.006	59.142
690	6.9	-76.899	-13.463	169.353	-142.2	-250.129	195.982	-123.539	-248.162	222.199	-46.816	-153.158	-8.669	-46.816	31.938	-8.669	0	0	0	-133.245	29.886	54.351	-105.027	24.6	170.112	-151.424	-82.066	59.04
691	6.91	-76.92	-13.55	169.28	-141.802	-250.345	195.79	-123.151	-248.355	222.012	-46.816	-153.158	-8.669	-46.816	31.938	-8.669	0	0	0	-133.398	30.05	54.314	-105.082	24.629	170.045	-151.565	-81.908	58.885
692	6.92	-77.018	-13.467	169.034	-141.478	-250.385	195.477	-122.815	-248.375	221.69	-46.816	-153.158	-8.669	-46.816	31.938	-8.669	0	0	0	-133.61	30.244	54.21	-105.136	24.68	169.895	-151.776	-81.719	58.67
693	6.93	-76.995	-13.489	168.836	-141.129	-250.501	195.231	-122.446	-248.478	221.428	-46.816	-153.158	-8.669	-46.816	31.938	-8.669	0	0	0	-133.652	30.248	54.136	-105.005	24.551	169.772	-151.849	-81.714	58.504
694	6.94	-76.83	-13.803	168.869	-140.795	-250.871	195.171	-122.092	-248.853	221.353	-46.816	-153.158	-8.669	-46.816	31.938	-8.669	0	0	0	-133.535	30.071	54.187	-104.742	24.247	169.781	-151.78	-81.887	58.469
695	6.95	-76.75	-14.281	169.049	-140.649	-251.384	195.197	-121.926	-249.384	221.367	-46.816	-153.158	-8.669	-46.816	31.938	-8.669	0	0	0	-133.545	29.835	54.348	-104.645	23.882	169.908	-151.832	-82.119	58.533
